<svg width="22" height="26" viewBox="0 0 22 26" fill="none" xmlns="http://www.w3.org/2000/svg">
<path d="M21.5625 3.37797C21.5561 2.70985 21.2866 2.07119 20.8124 1.60046C20.3383 1.12972 19.6977 0.864854 19.0295 0.863281L2.95828 0.8125C2.29082 0.812632 1.65065 1.07742 1.17812 1.54881C0.705584 2.0202 0.439248 2.65973 0.4375 3.32719V19.9062C0.4375 21.2926 1.56891 22.3438 2.95828 22.3438H16.6875L16.0273 20.1094L21.5625 25.1875V3.37797ZM14.4861 16.7482C14.4861 16.7482 14.0433 16.2205 13.6736 15.7671C15.2854 15.3131 15.9004 14.3203 15.9004 14.3203C15.4577 14.614 14.9833 14.8567 14.4861 15.0439C13.9121 15.2823 13.3145 15.4591 12.7032 15.5716C11.65 15.765 10.5699 15.7609 9.5182 15.5594C8.89956 15.4445 8.29406 15.2675 7.7109 15.0312C7.4024 14.9131 7.10241 14.7738 6.81309 14.6143C6.77602 14.59 6.73945 14.5778 6.70238 14.5529C6.6775 14.5407 6.66531 14.5285 6.6516 14.5285C6.43019 14.4056 6.3073 14.3198 6.3073 14.3198C6.3073 14.3198 6.89738 15.2892 8.45941 15.7549C8.09023 16.2211 7.63523 16.7609 7.63523 16.7609C4.91793 16.675 3.88504 14.9089 3.88504 14.9089C3.88504 10.9957 5.65578 7.81879 5.65578 7.81879C7.42652 6.50609 9.09875 6.54316 9.09875 6.54316L9.22164 6.69043C7.00809 7.31605 6.00008 8.28496 6.00008 8.28496C6.00008 8.28496 6.27023 8.1377 6.72523 7.94117C8.04098 7.3648 9.08656 7.21754 9.5182 7.16879C9.58709 7.15447 9.65709 7.14615 9.72742 7.14391C10.5514 7.03699 11.3852 7.02881 12.2111 7.11953C13.508 7.2685 14.7643 7.66408 15.9126 8.28496C15.9126 8.28496 14.9411 7.36328 12.8505 6.73867L13.0226 6.54266C13.0226 6.54266 14.707 6.50559 16.4661 7.82031C16.4661 7.82031 18.2368 10.9972 18.2368 14.9104C18.2368 14.8962 17.2034 16.6623 14.4861 16.7482Z" fill="#BDBDBD"/>
</svg>
