<svg width="21" height="21" viewBox="0 0 21 21" fill="none" xmlns="http://www.w3.org/2000/svg">
<path d="M0.257812 0.257812V20.7422H20.7422V0.257812H0.257812ZM17.2756 5.11117L16.1768 6.16459C16.1304 6.20003 16.0945 6.24744 16.0729 6.30172C16.0514 6.35601 16.0451 6.41514 16.0546 6.47275V14.2119C16.0348 14.3291 16.082 14.4482 16.1768 14.5201L17.2495 15.5735V15.8048H11.8535V15.5735L12.9649 14.4945C13.074 14.3853 13.074 14.3529 13.074 14.1863V7.93092L9.98385 15.7792H9.56607L5.96828 7.93092V13.1913C5.93818 13.4123 6.01186 13.6351 6.16729 13.795L7.61287 15.5483V15.7797H3.5142V15.5483L4.95978 13.795C5.11432 13.6346 5.1835 13.4105 5.14621 13.1913V7.1084C5.16328 6.93949 5.09904 6.77238 4.97281 6.65873L3.68805 5.11072V4.87938H7.67756L10.7614 11.6424L13.4725 4.87938H17.2756V5.11117Z" fill="#BDBDBD"/>
</svg>
