<svg width="23" height="19" viewBox="0 0 23 19" fill="none" xmlns="http://www.w3.org/2000/svg">
<path d="M22.2812 2.91944C21.4724 3.27089 20.6166 3.50243 19.7409 3.60674C20.6612 3.06785 21.3533 2.21173 21.6874 1.19893C20.8173 1.70771 19.8669 2.0647 18.8771 2.2546C18.4602 1.81775 17.9589 1.47022 17.4036 1.23314C16.8483 0.99606 16.2505 0.87438 15.6467 0.875496C13.2021 0.875496 11.2237 2.8251 11.2237 5.22842C11.222 5.56272 11.2603 5.89601 11.3378 6.2212C9.58484 6.13902 7.8683 5.69183 6.29804 4.90825C4.72777 4.12466 3.33836 3.02193 2.21869 1.67061C1.82588 2.33281 1.61815 3.08837 1.61719 3.85831C1.61719 5.36768 2.40467 6.70186 3.59375 7.4835C2.88925 7.46678 2.19919 7.28032 1.58215 6.93995V6.99385C1.58215 9.10518 3.10949 10.8616 5.13098 11.2614C4.75084 11.3628 4.35911 11.4141 3.9657 11.4142C3.68655 11.4146 3.40803 11.3876 3.1342 11.3333C3.69617 13.0628 5.33178 14.3206 7.26926 14.3565C5.69492 15.5699 3.76203 16.2256 1.77441 16.2208C1.42161 16.2203 1.06913 16.1993 0.71875 16.1579C2.74076 17.4491 5.0912 18.132 7.49027 18.1255C15.6373 18.1255 20.0882 11.4905 20.0882 5.73604C20.0882 5.54737 20.0832 5.3587 20.0742 5.17452C20.9381 4.56001 21.6855 3.79636 22.2812 2.91944Z" fill="#BDBDBD"/>
</svg>
