<svg width="24" height="24" viewBox="0 0 24 24" fill="none" xmlns="http://www.w3.org/2000/svg">
<path d="M13.5909 11.9992L18.0441 7.54608C18.2554 7.33511 18.3743 7.04882 18.3745 6.7502C18.3748 6.45158 18.2564 6.16508 18.0455 5.95374C17.8345 5.74239 17.5482 5.62351 17.2496 5.62325C16.951 5.62298 16.6645 5.74136 16.4531 5.95233L12 10.4055L7.54687 5.95233C7.33553 5.74099 7.04888 5.62225 6.75 5.62225C6.45111 5.62225 6.16447 5.74099 5.95312 5.95233C5.74178 6.16367 5.62305 6.45032 5.62305 6.7492C5.62305 7.04809 5.74178 7.33473 5.95312 7.54608L10.4062 11.9992L5.95312 16.4523C5.74178 16.6637 5.62305 16.9503 5.62305 17.2492C5.62305 17.5481 5.74178 17.8347 5.95312 18.0461C6.16447 18.2574 6.45111 18.3761 6.75 18.3761C7.04888 18.3761 7.33553 18.2574 7.54687 18.0461L12 13.593L16.4531 18.0461C16.6645 18.2574 16.9511 18.3761 17.25 18.3761C17.5489 18.3761 17.8355 18.2574 18.0469 18.0461C18.2582 17.8347 18.3769 17.5481 18.3769 17.2492C18.3769 16.9503 18.2582 16.6637 18.0469 16.4523L13.5909 11.9992Z" fill="black"/>
</svg>
